HIERARCHY
ROOT Hips
{
  OFFSET 155.048 98.1286 3.93448
  CHANNELS 6 Xposition Yposition Zposition Zrotation Xrotation Yrotation
  JOINT RightUpLeg
  {
    OFFSET -8.9458 -8.66707 0.101652
    CHANNELS 3 Zrotation Xrotation Yrotation
    JOINT RightLeg
    {
      OFFSET 0 -44.4227 1.3727
      CHANNELS 3 Zrotation Xrotation Yrotation
      JOINT RightFoot
      {
        OFFSET 0.253549 -42.0924 -1.46059
        CHANNELS 3 Zrotation Xrotation Yrotation
        JOINT RightToes
        {
          OFFSET 0.04 -4.41509 8.4991
          CHANNELS 3 Zrotation Xrotation Yrotation
          End Site
          {
            OFFSET -0.08 -0.137448 9.77979
          }
        }
      }
    }
  }
  JOINT Spine
  {
    OFFSET 0 11.8905 0
    CHANNELS 3 Zrotation Xrotation Yrotation
    JOINT Spine1
    {
      OFFSET 0 25.6574 0.127663
      CHANNELS 3 Zrotation Xrotation Yrotation
      JOINT Head
      {
        OFFSET 0 8.73416 0.011341
        CHANNELS 3 Zrotation Xrotation Yrotation
        End Site
        {
          OFFSET -0.29 12.7742 2.51395
        }
      }
      JOINT LeftShoulder1
      {
        OFFSET 8.99 -0.362252 -0.22
        CHANNELS 3 Zrotation Xrotation Yrotation
        JOINT LeftArm
        {
          OFFSET 10.2827 -0.00337999 0.322123
          CHANNELS 3 Zrotation Xrotation Yrotation
          JOINT LeftForeArm
          {
            OFFSET 26.2597 0.099144 -1.42434
            CHANNELS 3 Zrotation Xrotation Yrotation
            JOINT LeftHand
            {
              OFFSET 22.0902 0.085362 1.02216
              CHANNELS 3 Zrotation Xrotation Yrotation
              End Site
              {
                OFFSET 13.419 -0.6 1.50291
              }
            }
          }
        }
      }
      JOINT RightShoulder
      {
        OFFSET -8.99 -0.362252 -0.22
        CHANNELS 3 Zrotation Xrotation Yrotation
        JOINT RightArm
        {
          OFFSET -10.2827 -0.00338 0.322123
          CHANNELS 3 Zrotation Xrotation Yrotation
          JOINT RightForeArm
          {
            OFFSET -26.364 0.099144 -1.42434
            CHANNELS 3 Zrotation Xrotation Yrotation
            JOINT RightHand
            {
              OFFSET -22.0324 0.085362 1.02216
              CHANNELS 3 Zrotation Xrotation Yrotation
              End Site
              {
                OFFSET -13.3284 -0.6 1.50291
              }
            }
          }
        }
      }
    }
  }
  JOINT LeftUpLeg
  {
    OFFSET 8.9458 -8.66707 0.101652
    CHANNELS 3 Zrotation Xrotation Yrotation
    JOINT LeftLeg
    {
      OFFSET 0 -44.4227 1.3727
      CHANNELS 3 Zrotation Xrotation Yrotation
      JOINT LeftFoot
      {
        OFFSET -0.253549 -42.0924 -1.46059
        CHANNELS 3 Zrotation Xrotation Yrotation
        JOINT LeftToes
        {
          OFFSET -0.04 -4.41509 8.4991
          CHANNELS 3 Zrotation Xrotation Yrotation
          End Site
          {
            OFFSET 0.08 -0.047448 9.77979
          }
        }
      }
    }
  }
}
MOTION
Frames:	8
Frame Time:	0.0333333
166.997 99.9781 7.19303 -2.4981 0.109609 -91.7776 -0.604732 -2.41761 -4.19255 -2.52727 14.0187 -2.17826 2.78765 -8.59569 -0.146717 0.0462048 0.000530889 0.662642 4.0033 -9.91567 0.860928 -2.70973 26.0448 1.31639 0.108594 -15.7937 -2.58245 -38.8437 8.58255 -15.4099 -46.7797 -32.8873 -16.7181 -15.5025 26.8978 -3.08377 22.1595 8.85835 -0.160597 50.0455 13.3556 19.1952 21.1676 -43.0628 1.84365 7.98632 33.158 6.3679 -5.50334 9.51361 4.1572 -1.46305 -0.789125 4.26238 1.80409 12.8498 10.2155 -0.982018 -8.88868 0.0213541 -1.34084e-009 8.75212e-006 -1.45762e-008 
166.947 99.9718 7.18891 -2.53787 0.0617782 -91.9655 -0.667936 -2.42884 -4.17898 -2.539 14.1448 -1.99278 2.7663 -8.65577 -0.146741 0.0462048 0.000530889 0.662642 3.94261 -9.62732 0.983404 -2.54523 25.8296 1.39479 -0.00612802 -15.9613 -2.31174 -39.1114 8.68734 -15.5208 -45.6119 -29.4349 -15.9269 -14.8908 23.6241 -5.2413 22.0042 8.87103 -0.133376 49.9974 13.342 19.1943 21.0965 -42.6055 2.08963 7.9159 32.8679 6.86684 -5.89633 9.47443 4.31838 -1.51724 -0.687354 4.24697 1.78219 12.8266 10.3515 -0.994892 -8.91414 0.0213556 -1.34084e-009 8.75212e-006 -1.45762e-008 
166.842 99.9592 7.171 -2.54779 0.00558558 -92.2138 -0.719084 -2.46896 -4.09536 -2.56474 14.32 -1.83091 2.71741 -8.76511 -0.146784 0.0462048 0.000530889 0.662642 3.90516 -9.34749 1.1534 -2.41037 25.6917 1.52878 -0.16427 -15.9386 -2.24576 -39.4015 8.81702 -15.6739 -44.1959 -24.2213 -15.2853 -14.222 19.0377 -8.03644 22.0095 8.87779 -0.0952654 49.95 13.3315 19.1975 21.1551 -41.6826 2.78977 7.83556 32.2911 7.66051 -6.47511 9.43446 4.14281 -1.58373 -0.585353 4.22167 1.77518 12.8182 10.554 -1.04113 -8.96744 0.0213587 -1.34084e-009 8.75212e-006 -1.45762e-008 
166.704 99.9506 7.13875 -2.48298 -0.00726927 -92.339 -0.700702 -2.49412 -4.0067 -2.58562 14.3821 -1.81015 2.64438 -8.86869 -0.146825 0.0462048 0.000530889 0.662642 3.94797 -9.29113 1.26896 -2.44409 25.7438 1.65529 -0.172219 -15.5264 -2.4586 -39.4835 8.87764 -15.768 -43.4764 -20.8891 -15.3476 -13.9155 16.3208 -9.55864 22.3181 8.87825 -0.0118715 50.0016 13.3578 19.2191 21.2945 -40.8154 3.65851 7.83069 31.716 8.21558 -6.93407 9.42467 3.59008 -1.60543 -0.538915 4.21196 1.79782 12.7902 10.7156 -1.07991 -9.04082 0.0213631 -1.34084e-009 8.75212e-006 -1.45762e-008 
166.547 99.9554 7.10178 -2.38924 0.00366273 -92.3486 -0.659516 -2.45063 -4.01345 -2.5938 14.297 -1.79056 2.61108 -8.9317 -0.14685 0.0462048 0.000530889 0.662642 4.04222 -9.21801 1.32108 -2.59491 25.6925 1.7586 -0.0770644 -15.0464 -2.55322 -39.4644 8.90333 -15.8312 -43.18 -19.5124 -15.5549 -13.8319 15.1101 -10.1435 22.5605 8.87768 0.0472726 50.1613 13.4273 19.2656 21.3315 -40.2767 4.2876 7.86857 31.1654 8.51816 -7.11832 9.42845 3.25777 -1.59648 -0.488562 4.22248 1.82268 12.7011 10.8115 -1.07912 -9.10376 0.0213668 -1.34084e-009 8.75212e-006 -1.45762e-008 
166.386 99.965 7.06908 -2.29344 -0.000723924 -92.3418 -0.654833 -2.39921 -4.08663 -2.58317 14.1983 -1.70791 2.62623 -8.97664 -0.146868 0.0462048 0.000530889 0.662642 4.15571 -8.94204 1.32977 -2.80096 25.4008 1.84378 -0.0611972 -14.7933 -2.40454 -39.4888 8.94595 -15.9117 -42.8282 -18.5325 -15.4616 -13.7201 14.0717 -10.6985 22.4564 8.86675 -0.0378323 50.3233 13.5036 19.3222 21.3608 -39.9604 4.67572 7.82763 30.6113 8.83731 -6.97248 9.43128 3.45221 -1.6047 -0.43476 4.21285 1.8464 12.5963 10.8733 -1.09242 -9.13893 0.0213689 -1.34084e-009 8.75212e-006 -1.45762e-008 
166.228 99.9617 7.03927 -2.15906 -0.0360886 -92.3373 -0.705701 -2.45242 -4.16098 -2.531 14.2238 -1.64557 2.60176 -9.07664 -0.146909 0.0462048 0.000530889 0.662642 4.29613 -8.62592 1.29821 -3.09655 25.1299 1.92166 -0.0923027 -14.6566 -2.23517 -39.475 8.96243 -15.953 -42.5858 -17.9068 -15.3574 -13.5919 13.5412 -11.1011 22.2173 8.8496 -0.192213 50.4478 13.57 19.3783 21.5868 -39.7662 5.13096 7.6909 30.306 9.18879 -6.72616 9.43171 3.77064 -1.64857 -0.452053 4.14506 1.88766 12.5353 10.9151 -1.16208 -9.18114 0.0213715 -1.34084e-009 8.75212e-006 -1.45762e-008 
166.076 99.9447 7.0053 -1.97649 -0.0936429 -92.2712 -0.790639 -2.59896 -4.22908 -2.44423 14.3481 -1.66282 2.5615 -9.26894 -0.145845 0.0462048 0.000530889 0.662642 4.48896 -8.42621 1.24273 -3.55789 25.1097 2.03505 0.042031 -14.4319 -2.1636 -39.2443 8.88012 -15.8779 -42.9004 -18.6609 -15.6954 -13.6091 14.3927 -10.74 22.15 8.84854 -0.216219 50.6489 13.6628 19.444 21.8932 -39.5954 5.67512 7.56092 30.2788 9.45384 -6.76522 9.4269 3.81064 -1.71062 -0.556189 4.03835 1.94356 12.5243 10.9161 -1.24309 -9.26896 0.0213768 -1.34084e-009 8.75212e-006 -1.45762e-008 
